<svg width="136" height="50" viewBox="0 0 136 50" fill="none" xmlns="http://www.w3.org/2000/svg">
<g clip-path="url(#clip0_1_46)">
<path d="M121.085 45.2777C120.445 45.5209 119.036 44.986 118.093 45.0238L118.017 45.0778C115.703 44.7536 113.275 44.6186 110.928 44.5267C110.18 44.6834 108.771 44.3214 107.839 44.4835C100.478 44.2133 92.5004 45.0022 84.9722 45.9693C85.3625 46.0774 81.9371 46.7474 82.5875 46.8824C79.4169 47.4498 77.4549 48.7411 74.4036 49.33C73.9212 49.53 75.6501 49.1139 75.1678 49.3084C93.1345 44.2998 112.874 45.9747 131.014 48.0657C130.58 47.9685 130.185 47.8712 129.838 47.7848C131.225 48.0117 134.791 48.5628 132.277 47.801C131.724 47.6497 132.499 47.6767 131.626 47.4768C132.266 47.5794 132.586 47.6335 133.225 47.7469C133.306 47.6983 131.252 47.4552 131.708 47.4336C132.32 47.5524 133.014 47.6335 133.653 47.7469C133.447 47.6281 131.442 47.3525 131.556 47.2931C132.271 47.4606 134.688 47.8388 132.542 47.439C134.515 47.7361 135.621 47.8496 133.838 47.4228C134.466 47.5308 135.333 47.7307 136.005 47.8496C135.669 47.774 135.106 47.6551 134.797 47.5957C135.171 47.6659 135.55 47.7415 135.924 47.8118C135.599 47.6713 135.236 47.6281 134.884 47.5524C135.133 47.6011 135.382 47.6497 135.631 47.6929C130.786 46.2611 126.022 45.9315 121.09 45.2885" fill="#8ACA47"/>
<path d="M28.1344 0.0107738H0.265557C-2.4281 12.9511 17.6361 8.22884 26.129 9.04471C28.2807 9.17978 26.9908 12.1731 25.3594 12.011H20.7038L18.9206 18.9107H23.5763C25.728 19.0458 24.438 22.0391 22.8067 21.877C22.8067 21.877 22.2701 21.877 22.2647 21.877H15.181L17.7337 12.0056H8.67173L3.78303 30.9163H21.0181C28.9094 31.2945 36.9687 21.9959 33.3808 14.5666C37.9768 9.16357 36.7194 -0.335023 28.1344 0.0107738Z" fill="#FBC508"/>
<path d="M25.8309 7.75342V9.03935C27.3539 8.79081 27.7116 10.6279 26.6439 11.4653C30.8497 11.233 34.5298 12.011 33.3808 14.5667C34.8766 12.5946 35.9064 10.2118 36.0527 7.75342H25.8364H25.8309Z" fill="#8ACA47"/>
<path d="M28.1344 0.0106517H0.265595C-3.69631 18.3865 37.9985 1.24255 33.3808 14.5719C37.9768 9.16345 36.7194 -0.335145 28.1344 0.0106517Z" fill="#FF5800"/>
<path d="M42.3994 4.24687C44.8058 3.91188 46.8599 3.93349 49.3097 4.24687L57.4774 30.5868C54.8921 30.9867 53.1198 31.0515 50.7134 30.6247L49.3097 25.5025C46.822 26.2482 44.3776 26.2806 41.8791 25.5782L40.5133 30.6247C38.2803 31.0569 36.3942 30.965 34.1179 30.549L42.394 4.24687H42.3994ZM45.6892 11.1736L43.2123 20.6398C44.8275 21.1747 46.4263 21.1531 48.0523 20.6776L45.6892 11.1736Z" fill="#FF5800"/>
<path d="M59.8784 4.27928C62.1926 3.90647 64.1167 3.89566 66.4201 4.27928V24.9082H74.9563C75.3628 27.0046 75.352 28.5931 74.9563 30.6895H59.8784V4.27928Z" fill="#FF5800"/>
<path d="M84.2677 4.24687C86.6741 3.91188 88.7282 3.93349 91.178 4.24687L99.3457 30.5868C96.7604 30.9867 94.9881 31.0515 92.5817 30.6247L91.178 25.5025C88.6902 26.2482 86.2459 26.2806 83.7474 25.5782L82.3816 30.6247C80.1486 31.0569 78.2625 30.965 75.9861 30.549L84.2622 4.24687H84.2677ZM87.5575 11.1736L85.0806 20.6398C86.6957 21.1747 88.2946 21.1531 89.9206 20.6776L87.5575 11.1736Z" fill="#FF5800"/>
<path d="M101.747 4.27925C112.142 2.33955 124.049 4.79795 123.328 17.614C124.033 30.4031 112.061 32.4509 101.747 30.5814V4.27925ZM108.288 25.3512C119.41 27.6583 119.258 7.36981 108.288 9.58507V25.3512Z" fill="#FF5800"/>
<path d="M127.063 4.27928C129.377 3.90647 131.301 3.89566 133.604 4.27928V30.5814C130.9 31.0245 129.735 31.0245 127.063 30.5814V4.27928Z" fill="#FF5800"/>
<path d="M88.0127 44.7536C84.1538 44.8347 84.9234 39.8477 84.8963 37.3676C86.3218 30.0303 97.1506 37.3676 86.2621 41.4416C85.2812 45.683 91.6928 44.7915 89.0859 41.2525H91.1075C91.3134 43.0571 89.8718 44.7969 88.0127 44.759M87.9911 34.6607C85.5088 34.6337 86.4247 38.3996 86.2621 39.8639C86.945 39.383 89.1021 38.4915 89.4598 37.6918C90.1969 36.5086 89.5574 34.5743 87.9856 34.6607" fill="#FBC508"/>
<path d="M95.9962 39.0426L98.6303 44.7537H96.6087C97.5463 44.0729 95.3946 41.1066 95.2591 40.3664L92.8148 44.7537H92.4137L95.064 39.9665L92.4137 34.2555H94.457C93.5193 34.9363 95.671 37.9026 95.8065 38.6428L98.2292 34.2555H98.6303L95.9962 39.0426Z" fill="#FBC508"/>
<path d="M106.185 41.6684C106.272 44.0674 103.27 45.6505 101.346 44.2079V50H99.9744V34.2554C106.69 34.1906 106.283 35.4225 106.185 41.663V41.6684ZM103.091 44.3538C106.11 44.5375 104.424 37.9403 104.841 36.4004C104.863 35.4441 104.056 34.639 103.091 34.6607C100.072 34.477 101.757 41.0741 101.34 42.614C101.318 43.5703 102.126 44.3754 103.091 44.3538Z" fill="#FBC508"/>
<path d="M110.521 34.6553C107.297 34.3798 109.302 43.203 108.776 44.7537H107.405C107.513 41.5875 106.05 31.6836 112.288 34.8066L111.719 35.1416C111.399 34.8228 110.977 34.6553 110.521 34.6607" fill="#FBC508"/>
<path d="M115.892 44.7536C112.033 44.8347 112.803 39.8477 112.776 37.3676C114.201 30.0303 125.03 37.3676 114.142 41.4416C113.161 45.683 119.572 44.7915 116.966 41.2525H118.987C119.193 43.0571 117.751 44.7969 115.892 44.759M115.871 34.6607C113.388 34.6337 114.304 38.3996 114.142 39.8639C114.825 39.383 116.982 38.4915 117.34 37.6918C118.077 36.5086 117.437 34.5743 115.865 34.6607" fill="#FBC508"/>
<path d="M124.694 37.5729C127.263 31.9645 116.125 35.6062 125.431 39.7341C129.951 43.9647 119.99 47.5037 120.337 41.247H122.38C119.312 46.1908 128.662 44.424 123.957 40.4473C114.901 37.3027 125.762 29.8465 126.548 37.762H124.526L124.694 37.5729Z" fill="#FBC508"/>
<path d="M132.038 37.5729C134.607 31.9645 123.469 35.6062 132.775 39.7341C137.295 43.9647 127.334 47.5037 127.681 41.247H129.724C126.656 46.1908 136.005 44.424 131.301 40.4473C122.244 37.3027 133.106 29.8465 133.892 37.762H131.87L132.038 37.5729Z" fill="#FBC508"/>
</g>
<defs>
<clipPath id="clip0_1_46">
<rect width="136" height="50" fill="white"/>
</clipPath>
</defs>
</svg>
